<svg id="visual" viewBox="0 0 900 600" width="900" height="600" xmlns="http://www.w3.org/2000/svg" xmlns:xlink="http://www.w3.org/1999/xlink" version="1.1"><rect x="0" y="0" width="900" height="600" fill="#277965"></rect><path d="M0 186L100 180L200 205L300 195L400 207L500 179L600 194L700 195L800 205L900 191L900 601L800 601L700 601L600 601L500 601L400 601L300 601L200 601L100 601L0 601Z" fill="#175850"></path><path d="M0 256L100 230L200 231L300 237L400 241L500 245L600 253L700 231L800 222L900 254L900 601L800 601L700 601L600 601L500 601L400 601L300 601L200 601L100 601L0 601Z" fill="#155e55"></path><path d="M0 307L100 283L200 278L300 287L400 275L500 273L600 304L700 292L800 280L900 308L900 601L800 601L700 601L600 601L500 601L400 601L300 601L200 601L100 601L0 601Z" fill="#13655a"></path><path d="M0 346L100 326L200 360L300 335L400 359L500 360L600 361L700 343L800 342L900 339L900 601L800 601L700 601L600 601L500 601L400 601L300 601L200 601L100 601L0 601Z" fill="#116c5f"></path><path d="M0 412L100 384L200 404L300 409L400 391L500 388L600 392L700 392L800 389L900 406L900 601L800 601L700 601L600 601L500 601L400 601L300 601L200 601L100 601L0 601Z" fill="#0d7264"></path><path d="M0 447L100 444L200 441L300 456L400 449L500 443L600 427L700 432L800 456L900 428L900 601L800 601L700 601L600 601L500 601L400 601L300 601L200 601L100 601L0 601Z" fill="#097969"></path><path d="M0 493L100 485L200 487L300 495L400 480L500 496L600 490L700 492L800 498L900 505L900 601L800 601L700 601L600 601L500 601L400 601L300 601L200 601L100 601L0 601Z" fill="#05806e"></path><path d="M0 551L100 532L200 551L300 554L400 545L500 538L600 561L700 554L800 534L900 553L900 601L800 601L700 601L600 601L500 601L400 601L300 601L200 601L100 601L0 601Z" fill="#008773"></path></svg>