<svg id="visual" viewBox="0 0 900 600" width="900" height="600" xmlns="http://www.w3.org/2000/svg" xmlns:xlink="http://www.w3.org/1999/xlink" version="1.1"><path d="M0 79L450 97L900 97L900 0L450 0L0 0Z" fill="#225d53"></path><path d="M0 283L450 295L900 265L900 95L450 95L0 77Z" fill="#214b41"></path><path d="M0 337L450 349L900 319L900 263L450 293L0 281Z" fill="#1d3930"></path><path d="M0 469L450 475L900 469L900 317L450 347L0 335Z" fill="#182922"></path><path d="M0 553L450 535L900 553L900 467L450 473L0 467Z" fill="#111915"></path><path d="M0 601L450 601L900 601L900 551L450 533L0 551Z" fill="#010402"></path></svg>